# xmcd
#
# Track frame offsets:
#	150
#	16990
#	36360
#	55249
#	75642
#	88338
#	106160
#	122882
#	149919
#	167159
#	189734
#	205780
#
# Disc length: 2987 seconds
#
# Revision: 0
# Processed by: cddbd v1.5.1PL0 Copyright (c) Steve Scherf et al.
# Submitted via: dBpowerAMP V4.0
#
DISCID=ad0ba90c
DTITLE=Various Artist - Gloria Gaynor
DYEAR=1900
DGENRE=
TTITLE0=Gloria Gaynor - I will survive
TTITLE1=Gloria Gaynor - The power of love
TTITLE2=Gloria Gaynor - Wonderful day
TTITLE3=Gloria Gaynor - I'll be there
TTITLE4=Gloria Gaynor - Every breath you take
TTITLE5=Gloria Gaynor - The heats is on
TTITLE6=Gloria Gaynor - Suddenly
TTITLE7=Gloria Gaynor - I am what I am
TTITLE8=Gloria Gaynor - The eye of the tiger
TTITLE9=Gloria Gaynor - Strive
TTITLE10=Gloria Gaynor - He's out of my life
TTITLE11=Gloria Gaynor - Every time you go away
EXTD=
EXTT0=
EXTT1=
EXTT2=
EXTT3=
EXTT4=
EXTT5=
EXTT6=
EXTT7=
EXTT8=
EXTT9=
EXTT10=
EXTT11=
PLAYORDER=
